# Blender v2.79 (sub 0) OBJ File: ''
# www.blender.org
mtllib tgt.mtl
o tgt.001
v -1.000000 -0.000000 1.000000
v 1.000000 -0.000000 1.000000
v 1.000000 0.000000 -1.000000
v -1.000000 0.000000 -1.000000
vt 0.125000 0.937500
vt 0.062500 1.000000
vt 0.062500 0.937500
vt 0.125000 1.000000
vn 0.0000 1.0000 0.0000
usemtl tgt_mtl.001
s 1
f 2/1/1 4/2/1 1/3/1
f 2/1/1 3/4/1 4/2/1
o tgt
v -1.000000 -0.000000 1.000000
v 1.000000 -0.000000 1.000000
v 1.000000 0.000000 -1.000000
v -1.000000 0.000000 -1.000000
vt 0.125000 0.937500
vt 0.062500 1.000000
vt 0.062500 0.937500
vt 0.125000 1.000000
vn 0.0000 1.0000 0.0000
usemtl tgt_mtl
s 1
f 6/5/2 8/6/2 5/7/2
f 6/5/2 7/8/2 8/6/2
